<svg width="12" height="15" viewBox="0 0 12 15" fill="none" xmlns="http://www.w3.org/2000/svg">
<path d="M7.80622 1.40538C7.80622 2.22222 7.95681 2.97518 8.25799 3.66425C8.55918 4.35332 8.9927 4.98763 9.55856 5.56718C10.1244 6.14672 10.5579 6.78103 10.8591 7.4701C11.1603 8.15917 11.3109 8.91213 11.3109 9.72897C11.3109 10.2127 11.2493 10.6782 11.1261 11.1254C11.0029 11.5726 10.8249 11.9901 10.5922 12.378C10.3594 12.7659 10.0856 13.1218 9.77075 13.4458C9.45588 13.7698 9.10222 14.0436 8.70977 14.2673C8.31732 14.4909 7.89749 14.6665 7.45028 14.7943C7.00307 14.9221 6.5376 14.986 6.05388 14.986C5.57017 14.986 5.1047 14.9244 4.65749 14.8012C4.21028 14.678 3.79273 14.5 3.40484 14.2673C3.01696 14.0345 2.66101 13.7607 2.33701 13.4458C2.01301 13.131 1.73921 12.7773 1.51561 12.3849C1.292 11.9924 1.11631 11.5726 0.988537 11.1254C0.860762 10.6782 0.796875 10.2127 0.796875 9.72897C0.796875 9.34565 0.837945 8.96917 0.920086 8.59954C1.00223 8.22991 1.12087 7.87624 1.27603 7.53855C1.43118 7.20086 1.62285 6.87915 1.85101 6.5734C2.07918 6.26765 2.33701 5.99157 2.62451 5.74515C2.65645 5.91856 2.6998 6.09653 2.75456 6.27906C2.80932 6.4616 2.87321 6.64413 2.94623 6.82667C3.01924 7.0092 3.10594 7.18261 3.20634 7.34689C3.30673 7.51117 3.41169 7.66405 3.52121 7.80551C3.61248 7.9196 3.73113 7.97664 3.87715 7.97664C4.00036 7.97664 4.10304 7.93329 4.18518 7.84658C4.26732 7.75988 4.31067 7.65492 4.31524 7.53171C4.31524 7.48151 4.30839 7.43588 4.2947 7.39481C4.28101 7.35374 4.2582 7.31267 4.22625 7.2716C4.09848 7.0845 3.98667 6.89968 3.89084 6.71715C3.79501 6.53461 3.71059 6.34751 3.63758 6.15585C3.56456 5.96419 3.51208 5.76568 3.48014 5.56033C3.4482 5.35498 3.42994 5.13822 3.42538 4.91005C3.42538 4.36701 3.52806 3.85591 3.73341 3.37676C3.93876 2.8976 4.22169 2.48005 4.5822 2.12411C4.9427 1.76817 5.36025 1.48752 5.83484 1.28217C6.30943 1.07681 6.82053 0.971856 7.36814 0.967293H7.80622V1.40538ZM6.05388 14.1098C6.66081 14.1098 7.22895 13.9957 7.75831 13.7676C8.28766 13.5394 8.75312 13.2268 9.1547 12.8298C9.55628 12.4328 9.86887 11.9696 10.0925 11.4402C10.3161 10.9109 10.4302 10.3405 10.4347 9.72897C10.4347 9.0399 10.307 8.39875 10.0514 7.80551C9.79585 7.21227 9.42622 6.67379 8.9425 6.19008C8.34926 5.59227 7.8838 4.93287 7.54611 4.21185C7.20842 3.49084 7.00763 2.7105 6.94374 1.87084C6.56498 1.92104 6.21588 2.03512 5.89645 2.21309C5.57701 2.39107 5.29636 2.61695 5.0545 2.89076C4.81265 3.16456 4.62783 3.47259 4.50005 3.81484C4.37228 4.15709 4.30611 4.52216 4.30155 4.91005C4.30155 5.26599 4.35403 5.58771 4.45898 5.8752C4.56394 6.1627 4.7191 6.45019 4.92445 6.73768C5.01115 6.85633 5.07732 6.97954 5.12296 7.10732C5.16859 7.23509 5.19369 7.37655 5.19825 7.53171C5.19825 7.71424 5.16403 7.88537 5.09558 8.04509C5.02712 8.20481 4.93129 8.34399 4.80808 8.46264C4.68487 8.58129 4.54569 8.67712 4.39053 8.75013C4.23538 8.82314 4.06425 8.85737 3.87715 8.85281C3.66724 8.85281 3.48242 8.81402 3.3227 8.73644C3.16299 8.65886 3.02152 8.55391 2.89831 8.42157C2.7751 8.28923 2.66558 8.14092 2.56975 7.97664C2.47392 7.81236 2.38265 7.64808 2.29594 7.48379C2.08603 7.81692 1.93087 8.17515 1.83048 8.55847C1.73009 8.94179 1.67761 9.33196 1.67304 9.72897C1.67304 10.3359 1.78713 10.904 2.0153 11.4334C2.24347 11.9627 2.55606 12.4282 2.95307 12.8298C3.35008 13.2314 3.81327 13.544 4.34262 13.7676C4.87197 13.9912 5.44239 14.1053 6.05388 14.1098Z" fill="#BFE2C7"/>
</svg>
