<svg width="12" height="12" viewBox="0 0 12 12" fill="none" xmlns="http://www.w3.org/2000/svg">
<path d="M6.05645 10.6495C8.62655 10.6495 10.7293 8.54674 10.7293 5.97664C10.7293 3.40655 8.62655 1.30375 6.05645 1.30375C3.48636 1.30375 1.38356 3.40655 1.38356 5.97664C1.38356 8.54674 3.48636 10.6495 6.05645 10.6495ZM6.05645 0.135521C9.26907 0.135521 11.8976 2.76403 11.8976 5.97664C11.8976 9.18926 9.26907 11.8178 6.05645 11.8178C2.84384 11.8178 0.215332 9.18926 0.215332 5.97664C0.215332 2.76403 2.84384 0.135521 6.05645 0.135521ZM7.98402 8.42991L7.22468 8.8972L5.47234 5.85982V3.05608H6.34851V5.62617L7.98402 8.42991Z" fill="#BFE2C7"/>
</svg>
