<svg width="21" height="25" viewBox="0 0 21 25" fill="none" xmlns="http://www.w3.org/2000/svg">
<path d="M15.1262 0.0125109C15.0731 -0.0468638 13.1592 0.0359482 11.4938 1.84375C9.82839 3.64999 10.0846 5.72186 10.1221 5.77498C10.1596 5.82811 12.4968 5.91092 13.9888 3.80937C15.4808 1.70781 15.1793 0.0734481 15.1262 0.0125109ZM20.3037 18.3452C20.2287 18.1952 16.6713 16.4171 17.0025 12.9984C17.3337 9.57809 19.6194 8.64059 19.6553 8.53903C19.6913 8.43747 18.7226 7.30466 17.6962 6.73123C16.9426 6.32694 16.1085 6.0953 15.2543 6.0531C15.0856 6.04842 14.4997 5.90467 13.2952 6.23435C12.5015 6.45154 10.7127 7.15466 10.2205 7.18279C9.72684 7.21091 8.25826 6.36717 6.67877 6.14373C5.66795 5.94842 4.5962 6.34842 3.82911 6.65623C3.06358 6.96248 1.6075 7.83435 0.588876 10.1515C-0.429752 12.4671 0.102997 16.1359 0.484201 17.2765C0.865405 18.4155 1.46065 20.2827 2.47302 21.6452C3.37291 23.1827 4.56652 24.2499 5.0649 24.6124C5.56328 24.9749 6.96936 25.2155 7.94424 24.7171C8.72852 24.2358 10.144 23.9593 10.7033 23.9796C11.261 23.9999 12.3609 24.2202 13.4873 24.8218C14.3794 25.1296 15.223 25.0014 16.0683 24.6577C16.9135 24.3124 18.1368 23.003 19.5647 20.3483C20.1068 19.114 20.3537 18.4468 20.3037 18.3452Z" fill="white"/>
<path d="M15.1262 0.0125109C15.0731 -0.0468638 13.1592 0.0359482 11.4938 1.84375C9.82839 3.64999 10.0846 5.72186 10.1221 5.77498C10.1596 5.82811 12.4968 5.91092 13.9888 3.80937C15.4808 1.70781 15.1793 0.0734481 15.1262 0.0125109ZM20.3037 18.3452C20.2287 18.1952 16.6713 16.4171 17.0025 12.9984C17.3337 9.57809 19.6194 8.64059 19.6553 8.53903C19.6913 8.43747 18.7226 7.30466 17.6962 6.73123C16.9426 6.32694 16.1085 6.0953 15.2543 6.0531C15.0856 6.04842 14.4997 5.90467 13.2952 6.23435C12.5015 6.45154 10.7127 7.15466 10.2205 7.18279C9.72684 7.21091 8.25826 6.36717 6.67877 6.14373C5.66795 5.94842 4.5962 6.34842 3.82911 6.65623C3.06358 6.96248 1.6075 7.83435 0.588876 10.1515C-0.429752 12.4671 0.102997 16.1359 0.484201 17.2765C0.865405 18.4155 1.46065 20.2827 2.47302 21.6452C3.37291 23.1827 4.56652 24.2499 5.0649 24.6124C5.56328 24.9749 6.96936 25.2155 7.94424 24.7171C8.72852 24.2358 10.144 23.9593 10.7033 23.9796C11.261 23.9999 12.3609 24.2202 13.4873 24.8218C14.3794 25.1296 15.223 25.0014 16.0683 24.6577C16.9135 24.3124 18.1368 23.003 19.5647 20.3483C20.1068 19.114 20.3537 18.4468 20.3037 18.3452Z" fill="white"/>
</svg>
