<svg width="200" height="200" viewBox="0 0 200 200" fill="none" xmlns="http://www.w3.org/2000/svg">
<path d="M82.3078 17.692C69.6979 20.4025 57.8794 25.974 47.7644 33.9767C37.6494 41.9794 29.5083 52.1991 23.9696 63.8472C18.4308 75.4953 15.6425 88.2603 15.8198 101.157C15.997 114.054 19.1351 126.737 24.9919 138.229L34.2161 133.527C29.0796 123.449 26.3274 112.325 26.1719 101.015C26.0165 89.704 28.4619 78.5088 33.3195 68.2932C38.1771 58.0775 45.317 49.1145 54.1881 42.096C63.0592 35.0775 73.4243 30.1911 84.4835 27.814L82.3078 17.692Z" fill="#31A14B"/>
<ellipse cx="100.001" cy="100" rx="67.3504" ry="67.3504" fill="#31A14B"/>
<path d="M93.3031 105.575L94.3884 106.66L95.4736 105.575L112.031 89.0183C112.229 88.8198 112.48 88.6961 112.91 88.6961C113.339 88.6961 113.59 88.8198 113.789 89.0183C113.987 89.2169 114.111 89.4678 114.111 89.8975C114.111 90.3271 113.987 90.5781 113.789 90.7767L95.2675 109.298C94.9747 109.591 94.7031 109.69 94.3884 109.69C94.0737 109.69 93.802 109.591 93.5092 109.298L86.2129 102.002L85.1277 103.087L86.2129 102.002C86.0144 101.803 85.8907 101.552 85.8907 101.123C85.8907 100.693 86.0143 100.442 86.2129 100.243C86.4114 100.045 86.6624 99.9212 87.0921 99.9212C87.5217 99.9212 87.7727 100.045 87.9712 100.243L93.3031 105.575Z" fill="#2131BA" stroke="white" stroke-width="3.06944"/>
</svg>
