<svg width="25" height="25" viewBox="0 0 25 25" fill="none" xmlns="http://www.w3.org/2000/svg">
<path d="M6.66675 10.283V2.9165C6.66675 2.71759 6.74577 2.52683 6.88642 2.38617C7.02707 2.24552 7.21784 2.1665 7.41675 2.1665C7.61566 2.1665 7.80643 2.24552 7.94708 2.38617C8.08773 2.52683 8.16675 2.71759 8.16675 2.9165V10.283C8.60562 10.1278 8.98556 9.84038 9.25421 9.46024C9.52286 9.0801 9.66699 8.62599 9.66675 8.1605V2.9165C9.66675 2.71759 9.74577 2.52683 9.88642 2.38617C10.0271 2.24552 10.2178 2.1665 10.4167 2.1665C10.6157 2.1665 10.8064 2.24552 10.9471 2.38617C11.0877 2.52683 11.1667 2.71759 11.1667 2.9165V8.1605C11.1669 9.02499 10.8684 9.863 10.3217 10.5327C9.77504 11.2024 9.01377 11.6626 8.16675 11.8355V22.4165C8.16675 22.6154 8.08773 22.8062 7.94708 22.9468C7.80643 23.0875 7.61566 23.1665 7.41675 23.1665C7.21784 23.1665 7.02707 23.0875 6.88642 22.9468C6.74577 22.8062 6.66675 22.6154 6.66675 22.4165V11.8355C5.81972 11.6626 5.05845 11.2024 4.51177 10.5327C3.96509 9.863 3.66657 9.02499 3.66675 8.1605V2.9165C3.66675 2.71759 3.74577 2.52683 3.88642 2.38617C4.02707 2.24552 4.21784 2.1665 4.41675 2.1665C4.61566 2.1665 4.80643 2.24552 4.94708 2.38617C5.08773 2.52683 5.16675 2.71759 5.16675 2.9165V8.1605C5.1665 8.62599 5.31064 9.0801 5.57929 9.46024C5.84794 9.84038 6.22788 10.1278 6.66675 10.283ZM16.4167 14.084C14.2882 13.607 12.6667 11.1395 12.6667 8.1665C12.6667 4.8515 14.6812 2.1665 17.1667 2.1665C19.6522 2.1665 21.6667 4.8515 21.6667 8.1665C21.6667 11.1395 20.0452 13.607 17.9167 14.084V22.4165C17.9167 22.6154 17.8377 22.8062 17.6971 22.9468C17.5564 23.0875 17.3657 23.1665 17.1667 23.1665C16.9678 23.1665 16.7771 23.0875 16.6364 22.9468C16.4958 22.8062 16.4167 22.6154 16.4167 22.4165V14.084ZM17.1667 12.6665C18.7147 12.6665 20.1667 10.7315 20.1667 8.1665C20.1667 5.6015 18.7147 3.6665 17.1667 3.6665C15.6187 3.6665 14.1667 5.6015 14.1667 8.1665C14.1667 10.7315 15.6187 12.6665 17.1667 12.6665Z" fill="#5FA9FF"/>
</svg>
