<svg width="23" height="22" viewBox="0 0 23 22" fill="none" xmlns="http://www.w3.org/2000/svg">
<path d="M16.2339 5.00814C16.2339 5.19356 16.1789 5.37481 16.0759 5.52898C15.9728 5.68316 15.8264 5.80332 15.6551 5.87427C15.4838 5.94523 15.2953 5.9638 15.1135 5.92762C14.9316 5.89145 14.7646 5.80216 14.6334 5.67105C14.5023 5.53994 14.413 5.37289 14.3769 5.19103C14.3407 5.00918 14.3593 4.82068 14.4302 4.64937C14.5012 4.47807 14.6213 4.33165 14.7755 4.22863C14.9297 4.12562 15.1109 4.07064 15.2964 4.07064C15.545 4.07064 15.7835 4.16941 15.9593 4.34522C16.1351 4.52104 16.2339 4.7595 16.2339 5.00814ZM20.012 12.4884C18.0835 14.9381 14.9879 16.2638 10.8076 16.4306L8.69542 21.36C8.65207 21.4613 8.57992 21.5477 8.48792 21.6084C8.39592 21.669 8.28812 21.7013 8.17792 21.7013H8.14229C8.02636 21.6939 7.91555 21.6509 7.82507 21.578C7.73459 21.5052 7.66889 21.4061 7.63698 21.2944L6.22042 16.335L1.26198 14.9147C1.15014 14.8829 1.05091 14.8171 0.977963 14.7266C0.905013 14.636 0.861924 14.5251 0.854625 14.409C0.847326 14.2929 0.876177 14.1775 0.937207 14.0785C0.998237 13.9795 1.08845 13.9019 1.19542 13.8563L6.12479 11.7478C6.29167 7.56658 7.61917 4.47189 10.0698 2.54345C14.0542 -0.592488 19.7645 0.441575 20.8679 0.681575C21.1144 0.734754 21.3404 0.857818 21.5188 1.03605C21.6972 1.21428 21.8204 1.44012 21.8739 1.68657C22.1129 2.79189 23.1479 8.50407 20.012 12.4884ZM16.3229 14.0391C15.3583 13.7777 14.5021 13.2153 13.8791 12.4338C13.2561 11.6523 12.8987 10.6924 12.8589 9.69376C11.8612 9.65308 10.9024 9.29564 10.1216 8.67328C9.34076 8.05091 8.7785 7.19599 8.51636 6.23251C7.72323 7.82064 7.29761 9.79501 7.23761 12.1388C7.23522 12.2466 7.20187 12.3515 7.14153 12.4409C7.08119 12.5304 6.99641 12.6006 6.89729 12.6431L3.09292 14.2688L6.83073 15.3394C6.92262 15.3657 7.00631 15.4149 7.07389 15.4825C7.14147 15.5501 7.19071 15.6337 7.21698 15.7256L8.28386 19.4625L9.91417 15.6581C9.95648 15.5591 10.0263 15.4743 10.1154 15.4139C10.2045 15.3534 10.309 15.3197 10.4167 15.3169C12.7604 15.2616 14.7367 14.8331 16.3229 14.0391ZM20.7742 1.9247C20.7665 1.88943 20.7487 1.85713 20.7231 1.83169C20.6975 1.80624 20.6651 1.78873 20.6298 1.78126C19.6126 1.56095 14.3542 0.607513 10.7654 3.42751C10.2958 3.79802 9.87026 4.22109 9.49698 4.68845C9.44979 5.20998 9.51816 5.73551 9.69722 6.2276C9.87628 6.7197 10.1616 7.16628 10.5329 7.53553C10.9042 7.90479 11.3524 8.18764 11.8455 8.36396C12.3386 8.54028 12.8645 8.60572 13.3857 8.55564C13.4684 8.54764 13.5517 8.55803 13.6299 8.58607C13.708 8.6141 13.779 8.65908 13.8377 8.71777C13.8964 8.77647 13.9413 8.84743 13.9694 8.92557C13.9974 9.0037 14.0078 9.08707 13.9998 9.1697C13.9498 9.69114 14.0154 10.2172 14.1919 10.7104C14.3685 11.2036 14.6516 11.6518 15.0212 12.023C15.3907 12.3943 15.8376 12.6795 16.33 12.8583C16.8224 13.0371 17.3481 13.1051 17.8698 13.0575C18.3362 12.6852 18.7584 12.2605 19.1279 11.7919C21.9479 8.20126 20.9945 2.94376 20.7742 1.9247Z" fill="#5FA9FF"/>
</svg>
