<svg width="25" height="25" viewBox="0 0 25 25" fill="none" xmlns="http://www.w3.org/2000/svg">
<path d="M15.8889 1.63867C15.8889 3.03711 16.1467 4.32617 16.6624 5.50586C17.178 6.68555 17.9202 7.77148 18.8889 8.76367C19.8577 9.75586 20.5999 10.8418 21.1155 12.0215C21.6311 13.2012 21.8889 14.4902 21.8889 15.8887C21.8889 16.7168 21.7834 17.5137 21.5725 18.2793C21.3616 19.0449 21.0569 19.7598 20.6584 20.4238C20.26 21.0879 19.7913 21.6973 19.2522 22.252C18.7131 22.8066 18.1077 23.2754 17.4358 23.6582C16.7639 24.041 16.0452 24.3418 15.2795 24.5605C14.5139 24.7793 13.717 24.8887 12.8889 24.8887C12.0608 24.8887 11.2639 24.7832 10.4983 24.5723C9.73267 24.3613 9.01782 24.0566 8.35376 23.6582C7.6897 23.2598 7.08032 22.791 6.52563 22.252C5.97095 21.7129 5.5022 21.1074 5.11938 20.4355C4.73657 19.7637 4.43579 19.0449 4.21704 18.2793C3.99829 17.5137 3.88892 16.7168 3.88892 15.8887C3.88892 15.2324 3.95923 14.5879 4.09985 13.9551C4.24048 13.3223 4.4436 12.7168 4.70923 12.1387C4.97485 11.5605 5.30298 11.0098 5.6936 10.4863C6.08423 9.96289 6.52563 9.49023 7.01782 9.06836C7.07251 9.36523 7.14673 9.66992 7.24048 9.98242C7.33423 10.2949 7.4436 10.6074 7.5686 10.9199C7.6936 11.2324 7.84204 11.5293 8.01392 11.8105C8.18579 12.0918 8.36548 12.3535 8.55298 12.5957C8.70923 12.791 8.91235 12.8887 9.16235 12.8887C9.37329 12.8887 9.54907 12.8145 9.6897 12.666C9.83032 12.5176 9.90454 12.3379 9.91235 12.127C9.91235 12.041 9.90063 11.9629 9.8772 11.8926C9.85376 11.8223 9.8147 11.752 9.76001 11.6816C9.54126 11.3613 9.34985 11.0449 9.18579 10.7324C9.02173 10.4199 8.8772 10.0996 8.7522 9.77148C8.6272 9.44336 8.53735 9.10352 8.48267 8.75195C8.42798 8.40039 8.39673 8.0293 8.38892 7.63867C8.38892 6.70898 8.5647 5.83398 8.91626 5.01367C9.26782 4.19336 9.7522 3.47852 10.3694 2.86914C10.9866 2.25977 11.7014 1.7793 12.5139 1.42773C13.3264 1.07617 14.2014 0.896484 15.1389 0.888672H15.8889V1.63867ZM12.8889 23.3887C13.928 23.3887 14.9006 23.1934 15.8069 22.8027C16.7131 22.4121 17.51 21.877 18.1975 21.1973C18.885 20.5176 19.4202 19.7246 19.803 18.8184C20.1858 17.9121 20.3811 16.9355 20.3889 15.8887C20.3889 14.709 20.1702 13.6113 19.7327 12.5957C19.2952 11.5801 18.6624 10.6582 17.8342 9.83008C16.8186 8.80664 16.0217 7.67773 15.4436 6.44336C14.8655 5.20898 14.5217 3.87305 14.4124 2.43555C13.7639 2.52148 13.1663 2.7168 12.6194 3.02148C12.0725 3.32617 11.592 3.71289 11.178 4.18164C10.7639 4.65039 10.4475 5.17773 10.2288 5.76367C10.01 6.34961 9.89673 6.97461 9.88892 7.63867C9.88892 8.24805 9.97876 8.79883 10.1584 9.29102C10.3381 9.7832 10.6038 10.2754 10.9553 10.7676C11.1038 10.9707 11.217 11.1816 11.2952 11.4004C11.3733 11.6191 11.4163 11.8613 11.4241 12.127C11.4241 12.4395 11.3655 12.7324 11.2483 13.0059C11.1311 13.2793 10.967 13.5176 10.7561 13.7207C10.5452 13.9238 10.3069 14.0879 10.0413 14.2129C9.77563 14.3379 9.48267 14.3965 9.16235 14.3887C8.80298 14.3887 8.48657 14.3223 8.21313 14.1895C7.9397 14.0566 7.69751 13.877 7.48657 13.6504C7.27563 13.4238 7.08813 13.1699 6.92407 12.8887C6.76001 12.6074 6.60376 12.3262 6.45532 12.0449C6.09595 12.6152 5.83032 13.2285 5.65845 13.8848C5.48657 14.541 5.39673 15.209 5.38892 15.8887C5.38892 16.9277 5.58423 17.9004 5.97485 18.8066C6.36548 19.7129 6.90063 20.5098 7.58032 21.1973C8.26001 21.8848 9.05298 22.4199 9.95923 22.8027C10.8655 23.1855 11.842 23.3809 12.8889 23.3887Z" fill="#5FA9FF"/>
</svg>
