<svg width="21" height="21" viewBox="0 0 21 21" fill="none" xmlns="http://www.w3.org/2000/svg">
<path d="M20.6324 8.37722H19.7932V8.33399H10.4175V12.501H16.3049C15.446 14.9267 13.138 16.668 10.4175 16.668C6.96565 16.668 4.167 13.8693 4.167 10.4175C4.167 6.96565 6.96565 4.167 10.4175 4.167C12.0108 4.167 13.4604 4.76808 14.5642 5.74993L17.5108 2.80335C15.6502 1.06936 13.1615 0 10.4175 0C4.66443 0 0 4.66443 0 10.4175C0 16.1705 4.66443 20.835 10.4175 20.835C16.1705 20.835 20.835 16.1705 20.835 10.4175C20.835 9.719 20.7631 9.03717 20.6324 8.37722Z" fill="#FFC107"/>
<path d="M1.20117 5.56867L4.62384 8.07876C5.54995 5.78587 7.79284 4.167 10.4175 4.167C12.0109 4.167 13.4605 4.76809 14.5642 5.74993L17.5108 2.80335C15.6502 1.06936 13.1615 0 10.4175 0C6.41617 0 2.9461 2.25903 1.20117 5.56867Z" fill="#FF3D00"/>
<path d="M10.4175 20.8349C13.1083 20.8349 15.5533 19.8051 17.4019 18.1305L14.1777 15.4022C13.0966 16.2243 11.7756 16.669 10.4175 16.6679C7.70789 16.6679 5.40719 14.9402 4.54045 12.5291L1.14331 15.1464C2.86741 18.5201 6.36872 20.8349 10.4175 20.8349Z" fill="#4CAF50"/>
<path d="M20.6323 8.37722H19.7932V8.33398H10.4175V12.501H16.3049C15.8941 13.6555 15.154 14.6643 14.1761 15.4028L14.1777 15.4017L17.4019 18.1301C17.1737 18.3374 20.835 15.6262 20.835 10.4175C20.835 9.71899 20.7631 9.03717 20.6323 8.37722Z" fill="#1976D2"/>
</svg>
