<svg width="72" height="72" viewBox="0 0 72 72" fill="none" xmlns="http://www.w3.org/2000/svg">
<path d="M29.6309 6.36912C25.0913 7.34489 20.8367 9.35066 17.1953 12.2316C13.5539 15.1126 10.6231 18.7917 8.62914 22.985C6.63519 27.1783 5.63139 31.7737 5.6952 36.4165C5.75901 41.0593 6.88873 45.6254 8.99717 49.7623L12.3179 48.0699C10.4687 44.4417 9.47795 40.4371 9.42199 36.3653C9.36602 32.2934 10.2464 28.2632 11.9951 24.5855C13.7439 20.9079 16.3142 17.6812 19.5078 15.1546C22.7014 12.6279 26.4329 10.8688 30.4142 10.013L29.6309 6.36912Z" fill="#31A14B"/>
<ellipse cx="36" cy="36" rx="24.2461" ry="24.2461" fill="#31A14B"/>
<path d="M28.9282 36H42.0615M36 28.9282L43.0718 36L36 43.0718" stroke="white" stroke-width="1.51538" stroke-linecap="round" stroke-linejoin="round"/>
</svg>
