<svg width="150" height="90" viewBox="0 0 150 90" fill="none" xmlns="http://www.w3.org/2000/svg">
<path d="M67.9878 88.7419C67.8957 87.6405 68.1008 86.5345 68.5818 85.5394C69.0629 84.5443 69.8021 83.6965 70.7224 83.0844C71.6428 82.4724 72.7105 82.1185 73.8142 82.0598C74.9179 82.0011 76.0172 82.2396 76.9973 82.7505C77.4716 81.4824 77.9584 80.1917 78.7972 79.1308C79.636 78.0698 80.9042 77.256 82.2572 77.3059V88.7419H67.9878Z" fill="#EBEBEB"/>
<path d="M30.392 44.4384L23.0975 59.1571L25.2768 59.2395L19.0933 70.9351H22.3411L17.2759 81.3251H45.59L39.354 70.9351L42.3422 70.8053L36.3683 59.1147L38.5751 58.9849L30.392 44.4384Z" fill="#EBEBEB"/>
<path d="M31.6276 61.5112C31.6625 61.5112 31.6001 67.7522 31.4878 75.4311C31.3754 83.1101 31.2556 89.3511 31.2182 89.3486C31.1807 89.3461 31.2456 83.1076 31.358 75.4286C31.4703 67.7497 31.5901 61.5112 31.6276 61.5112Z" fill="#E0E0E0"/>
<path d="M35.0976 64.9437C34.9573 65.1826 34.7979 65.4097 34.6208 65.6227C34.3137 66.0322 33.8719 66.5839 33.3726 67.188L32.0994 68.7283C31.9318 68.9486 31.7491 69.1571 31.5527 69.3524C31.691 69.112 31.8497 68.884 32.027 68.6708C32.3366 68.2639 32.776 67.7097 33.2752 67.1056L34.5484 65.5653C34.7155 65.3446 34.8991 65.1368 35.0976 64.9437Z" fill="#E0E0E0"/>
<path d="M31.5628 69.3524C31.0062 68.9988 30.4726 68.6102 29.9651 68.1891C29.4312 67.8 28.9234 67.3764 28.4448 66.9209C29.0025 67.2741 29.537 67.6627 30.045 68.0842C30.5791 68.4721 31.0862 68.8958 31.5628 69.3524Z" fill="#E0E0E0"/>
<path d="M31.3655 76.5694C31.1739 76.4458 30.995 76.3037 30.8312 76.1451C30.5117 75.873 30.0823 75.4985 29.583 75.0941C29.0837 74.6897 28.6294 74.3327 28.2999 74.0755C28.1129 73.9453 27.9375 73.7991 27.7756 73.6387C27.9794 73.7399 28.1726 73.8611 28.3523 74.0007C28.6993 74.2503 29.1661 74.5873 29.6654 74.9992C30.1647 75.4111 30.5966 75.7931 30.9011 76.0826C31.0712 76.2296 31.2267 76.3926 31.3655 76.5694Z" fill="#E0E0E0"/>
<path d="M35.3997 72.1084C35.3637 72.18 35.3193 72.2471 35.2673 72.3081C35.1775 72.4304 35.0402 72.6027 34.8654 72.8074C34.5134 73.2243 34.0042 73.7785 33.4275 74.3801C32.8508 74.9818 32.3341 75.521 31.9671 75.9229C31.7783 76.1475 31.5775 76.3616 31.3655 76.5645C31.398 76.4923 31.4419 76.4257 31.4953 76.3673C31.5852 76.2424 31.7225 76.0702 31.8972 75.868C32.2492 75.4486 32.7585 74.8944 33.3351 74.2952C33.9118 73.6961 34.4286 73.1519 34.7955 72.75C34.9847 72.5249 35.1864 72.3107 35.3997 72.1084Z" fill="#E0E0E0"/>
<path d="M89.7812 61.1867H119.364L124.891 53.338L130.685 61.4089L137.492 61.299L130.155 51.4158L97.1706 51.5531L89.7812 61.1867Z" fill="#E0E0E0"/>
<path d="M104.575 61.299V88.8118H134.115V61.299H130.73L124.891 53.338L119.346 61.1792L104.575 61.299Z" fill="#F5F5F5"/>
<path d="M115.659 76.884H108.749V88.8118H115.659V76.884Z" fill="#E0E0E0"/>
<path d="M130.685 76.547H119.801V83.2898H130.685V76.547Z" fill="#E0E0E0"/>
<path d="M123.068 76.547H122.819V83.3522H123.068V76.547Z" fill="#EBEBEB"/>
<path d="M127.594 76.547H127.344V83.3522H127.594V76.547Z" fill="#EBEBEB"/>
<path d="M127.469 80.0295H122.943V80.2792H127.469V80.0295Z" fill="#EBEBEB"/>
<path d="M130.685 63.054H119.801V69.7967H130.685V63.054Z" fill="#E0E0E0"/>
<path d="M123.068 63.054H122.819V69.8591H123.068V63.054Z" fill="#EBEBEB"/>
<path d="M127.594 63.054H127.344V69.8591H127.594V63.054Z" fill="#EBEBEB"/>
<path d="M127.469 66.5365H122.943V66.7861H127.469V66.5365Z" fill="#EBEBEB"/>
<path d="M114.937 63.1139H108.072V69.6145H114.937V63.1139Z" fill="#E0E0E0"/>
<path d="M104.577 61.2991H92.5872V88.8094H104.577V61.2991Z" fill="#E0E0E0"/>
<path d="M111.63 63.1139H111.38V69.6145H111.63V63.1139Z" fill="#EBEBEB"/>
<path d="M114.937 66.3992H108.072V66.6488H114.937V66.3992Z" fill="#EBEBEB"/>
<path d="M124.876 60.0458C125.679 60.0458 126.331 59.3942 126.331 58.5904C126.331 57.7866 125.679 57.135 124.876 57.135C124.072 57.135 123.42 57.7866 123.42 58.5904C123.42 59.3942 124.072 60.0458 124.876 60.0458Z" fill="#E0E0E0"/>
<path d="M114.493 56.8055L116.328 54.5387V49.0891H112.483V56.8479L114.493 56.8055Z" fill="#F5F5F5"/>
<path d="M114.493 56.8055V49.0891H116.328V54.5387L114.493 56.8055Z" fill="#EBEBEB"/>
<path d="M116.588 48.2878H112.054V49.0892H116.588V48.2878Z" fill="#EBEBEB"/>
<path d="M104.575 73.3341H82.2671V88.8118H104.575V73.3341Z" fill="#F5F5F5"/>
<path d="M96.2344 73.3341H82.2671V88.8118H96.2344V73.3341Z" fill="#E0E0E0"/>
<path d="M94.1548 78.3245H85.0205V88.7844H94.1548V78.3245Z" fill="#F5F5F5"/>
<path d="M103.347 78.282H97.4626V79.7798H103.347V78.282Z" fill="#EBEBEB"/>
<path d="M89.7812 61.1867V61.983H119.346V61.1792L89.7812 61.1867Z" fill="#EBEBEB"/>
<path d="M119.346 61.983L124.876 54.2217L124.891 53.338L119.364 61.1867L119.346 61.983Z" fill="#EBEBEB"/>
<path d="M137.35 61.2991H130.73V61.8133H137.35V61.2991Z" fill="#EBEBEB"/>
<path d="M113.302 75.0566H110.858V75.9853H113.302V75.0566Z" fill="#E0E0E0"/>
<path d="M149.934 88.8118C149.934 88.8468 116.383 88.8768 75.0025 88.8768C33.6223 88.8768 0.0656738 88.8468 0.0656738 88.8118C0.0656738 88.7769 33.6098 88.7419 75 88.7419C116.39 88.7419 149.934 88.7744 149.934 88.8118Z" fill="#263238"/>
<path d="M91.958 16.4014C86.4285 8.79488 78.3901 5.25 69.9897 5.25C69.9897 5.25 49.4469 5.25 43.3632 23.641C41.1164 30.4187 41.6157 37.7781 44.3368 44.3785C45.3584 46.8877 46.6455 49.2804 48.1762 51.5157C53.491 59.1797 70.0072 80.102 70.0072 80.102H73.597C78.2054 73.7012 89.8061 52.4394 93.2811 45.6217C97.6373 37.0666 98.3064 25.1338 91.958 16.4014ZM73.4273 50.4198C69.9562 50.4198 66.563 49.3905 63.6769 47.462C60.7909 45.5335 58.5415 42.7925 57.2132 39.5855C55.885 36.3786 55.5376 32.8498 56.215 29.4455C56.8924 26.0411 58.564 22.914 61.0187 20.4598C63.4733 18.0055 66.6006 16.3343 70.005 15.6574C73.4095 14.9805 76.9382 15.3284 80.145 16.6571C83.3517 17.9858 86.0924 20.2355 88.0205 23.1219C89.9486 26.0082 90.9774 29.4015 90.9769 32.8726C90.9763 37.5267 89.127 41.9899 85.8359 45.2805C82.5448 48.5712 78.0813 50.4198 73.4273 50.4198Z" fill="#FF725E"/>
<path opacity="0.4" d="M91.958 16.4014C86.4285 8.79488 78.3901 5.25 69.9897 5.25C69.9897 5.25 49.4469 5.25 43.3632 23.641C41.1164 30.4187 41.6157 37.7781 44.3368 44.3785C45.3584 46.8877 46.6455 49.2804 48.1762 51.5157C53.491 59.1797 70.0072 80.102 70.0072 80.102H73.597C78.2054 73.7012 89.8061 52.4394 93.2811 45.6217C97.6373 37.0666 98.3064 25.1338 91.958 16.4014ZM73.4273 50.4198C69.9562 50.4198 66.563 49.3905 63.6769 47.462C60.7909 45.5335 58.5415 42.7925 57.2132 39.5855C55.885 36.3786 55.5376 32.8498 56.215 29.4455C56.8924 26.0411 58.564 22.914 61.0187 20.4598C63.4733 18.0055 66.6006 16.3343 70.005 15.6574C73.4095 14.9805 76.9382 15.3284 80.145 16.6571C83.3517 17.9858 86.0924 20.2355 88.0205 23.1219C89.9486 26.0082 90.9774 29.4015 90.9769 32.8726C90.9763 37.5267 89.127 41.9899 85.8359 45.2805C82.5448 48.5712 78.0813 50.4198 73.4273 50.4198Z" fill="#232524"/>
<path d="M95.5704 16.5437C90.0409 8.93966 82.0025 5.39478 73.6021 5.39478C73.6021 5.39478 53.0592 5.39478 46.9755 23.7857C44.7288 30.5635 45.228 37.9228 47.9516 44.5233C48.9718 47.0327 50.2582 49.4254 51.7886 51.6605C57.1034 59.322 73.6121 80.2543 73.6121 80.2543C73.6121 80.2543 92.6871 54.0146 96.886 45.7765C101.25 37.2064 101.921 25.2786 95.5704 16.5437ZM73.4498 50.5646C69.9788 50.5646 66.5858 49.5353 63.6997 47.6069C60.8137 45.6786 58.5643 42.9377 57.236 39.7309C55.9077 36.5241 55.5602 32.9955 56.2373 29.5911C56.9145 26.1868 58.5859 23.0598 61.0403 20.6054C63.4947 18.1511 66.6217 16.4796 70.026 15.8025C73.4303 15.1253 76.959 15.4728 80.1658 16.8011C83.3726 18.1294 86.1134 20.3788 88.0418 23.2648C89.9702 26.1509 90.9995 29.5439 90.9995 33.0149C91.0168 35.3244 90.5746 37.6142 89.6988 39.7513C88.823 41.8883 87.5309 43.8298 85.8978 45.4629C84.2647 47.096 82.3232 48.3881 80.1862 49.2639C78.0491 50.1397 75.7593 50.5819 73.4498 50.5646Z" fill="#FF725E"/>
<path d="M73.4274 15.3229C69.8007 15.3228 66.2631 16.4464 63.3011 18.5389C60.339 20.6315 58.098 23.5903 56.8862 27.0085C58.2403 24.0159 60.537 21.5491 63.4253 19.985C66.3137 18.421 69.6348 17.8457 72.8809 18.3473C76.127 18.8488 79.1196 20.3995 81.4012 22.7624C83.6829 25.1252 85.128 28.1702 85.5157 31.4319C85.9034 34.6936 85.2124 37.9925 83.5483 40.8244C81.8842 43.6563 79.3386 45.8653 76.3005 47.1139C73.2624 48.3625 69.899 48.5819 66.7245 47.7385C63.55 46.8952 60.7389 45.0355 58.7211 42.4437C60.3799 44.9917 62.6723 47.0649 65.3735 48.4602C68.0748 49.8555 71.0923 50.5251 74.1302 50.4031C77.1681 50.2812 80.1221 49.372 82.7029 47.7647C85.2837 46.1574 87.4025 43.9071 88.8518 41.2344C90.3011 38.5617 91.031 35.5583 90.9701 32.5186C90.9092 29.4789 90.0596 26.5071 88.5044 23.8946C86.9492 21.2821 84.742 19.1185 82.0989 17.6158C79.4558 16.1132 76.4677 15.323 73.4274 15.3229Z" fill="#FF725E"/>
<path opacity="0.4" d="M73.4274 15.3229C69.8007 15.3228 66.2631 16.4464 63.3011 18.5389C60.339 20.6315 58.098 23.5903 56.8862 27.0085C58.2403 24.0159 60.537 21.5491 63.4253 19.985C66.3137 18.421 69.6348 17.8457 72.8809 18.3473C76.127 18.8488 79.1196 20.3995 81.4012 22.7624C83.6829 25.1252 85.128 28.1702 85.5157 31.4319C85.9034 34.6936 85.2124 37.9925 83.5483 40.8244C81.8842 43.6563 79.3386 45.8653 76.3005 47.1139C73.2624 48.3625 69.899 48.5819 66.7245 47.7385C63.55 46.8952 60.7389 45.0355 58.7211 42.4437C60.3799 44.9917 62.6723 47.0649 65.3735 48.4602C68.0748 49.8555 71.0923 50.5251 74.1302 50.4031C77.1681 50.2812 80.1221 49.372 82.7029 47.7647C85.2837 46.1574 87.4025 43.9071 88.8518 41.2344C90.3011 38.5617 91.031 35.5583 90.9701 32.5186C90.9092 29.4789 90.0596 26.5071 88.5044 23.8946C86.9492 21.2821 84.742 19.1185 82.0989 17.6158C79.4558 16.1132 76.4677 15.323 73.4274 15.3229Z" fill="#232524"/>
<path d="M108.419 40.9185C107.713 40.4334 106.857 40.2181 106.005 40.3118C104.567 40.4766 102.483 40.6888 102.483 40.6888V40.7562L92.4149 41.3753L89.3319 35.1218L84.6611 38.1999C84.6611 38.1999 85.2752 39.1835 87.894 44.019C88.4051 44.9628 89.1937 45.727 90.1531 46.2082C91.1125 46.6895 92.1966 46.8647 93.2587 46.7101L105.114 44.9626V44.9402C106.34 44.8728 107.665 44.7579 107.86 44.5807C108.23 44.2462 108.564 43.0229 108.564 43.0229C108.564 43.0229 110.676 44.2711 111.083 44.3061C111.49 44.341 111.565 43.994 111.817 43.6345C111.997 43.4124 109.82 41.8721 108.419 40.9185Z" fill="#FFBE9D"/>
<path d="M89.961 34.7224C89.961 34.7224 88.0038 30.9554 86.2164 27.398C84.0146 23.0318 79.1591 22.1556 79.1591 22.1556L72.1242 21.2319C72.1242 21.2319 66.2377 18.5732 60.7706 25.1762L56.2771 30.1965L57.2332 31.0577L61.6893 35.052L62.5705 35.8458L64.5876 33.7688L63.6515 39.0287L61.9963 46.3631L65.5737 45.9313L67.9927 31.1401L81.633 32.226L80.5446 41.5601C80.7643 41.5276 82.4144 41.2031 82.9511 38.9613C83.1236 38.246 83.1236 37.4998 82.9511 36.7845L83.74 38.8041L89.961 34.7224Z" fill="#455A64"/>
<path d="M67.9751 31.1476L65.5561 45.9387L61.9788 46.3706C64.3683 48.4323 67.2702 49.8105 70.378 50.3597C73.4859 50.9089 76.6843 50.6088 79.6358 49.4911L80.5445 41.5601L81.6154 32.2335L67.9751 31.1476Z" fill="#263238"/>
<path d="M68.7841 20.498L68.4895 32.5131L70.7562 32.8726L71.0608 20.6952C71.0608 20.6952 70.2694 20.3207 68.7841 20.498Z" fill="#263238"/>
<path d="M78.4102 32.5731L80.285 22.253C80.3923 22.1382 81.9301 22.6899 82.3944 23.2141L80.7118 32.7878L78.4102 32.5731Z" fill="#263238"/>
<path d="M70.8459 31.1052C70.87 31.1707 70.8818 31.2401 70.8808 31.3099C70.8979 31.4992 70.8979 31.6897 70.8808 31.8791C70.8633 32.1696 70.7657 32.4495 70.5988 32.6879C70.4959 32.8303 70.3596 32.9452 70.2018 33.0224C70.0275 33.1011 69.8332 33.1246 69.6451 33.0898C69.4689 33.0526 69.3021 32.9795 69.1553 32.8751C69.0084 32.7708 68.8846 32.6374 68.7914 32.4832C68.6469 32.2337 68.5615 31.9545 68.5417 31.6669C68.5252 31.4775 68.5252 31.2871 68.5417 31.0977C68.5405 31.0268 68.5532 30.9564 68.5792 30.8905C68.6016 30.8905 68.5792 31.1901 68.6316 31.6569C68.6664 31.9219 68.7557 32.1769 68.8937 32.4058C68.9801 32.5436 69.0934 32.6626 69.2268 32.7557C69.3602 32.8488 69.5109 32.914 69.6701 32.9475C69.8278 32.9754 69.9902 32.9578 70.1383 32.8968C70.2864 32.8358 70.4141 32.7339 70.5064 32.603C70.6657 32.3827 70.7647 32.1245 70.7935 31.8541C70.8484 31.4048 70.8209 31.1052 70.8459 31.1052Z" fill="#455A64"/>
<path d="M69.5078 32.1662C69.3797 32.1152 69.2771 32.0154 69.2226 31.8887C69.168 31.7621 69.166 31.619 69.217 31.4909C69.268 31.3628 69.3678 31.2602 69.4944 31.2056C69.6211 31.1511 69.7642 31.1491 69.8923 31.2C69.9557 31.2253 70.0136 31.2628 70.0625 31.3104C70.1115 31.358 70.1506 31.4147 70.1776 31.4775C70.2046 31.5402 70.219 31.6076 70.2199 31.6758C70.2209 31.7441 70.2084 31.8119 70.1831 31.8753C70.1579 31.9388 70.1204 31.9966 70.0728 32.0456C70.0252 32.0945 69.9684 32.1336 69.9057 32.1606C69.843 32.1876 69.7756 32.202 69.7073 32.2029C69.6391 32.2039 69.5713 32.1914 69.5078 32.1662Z" fill="#455A64"/>
<path d="M80.1726 32.231C80.1731 32.3343 80.143 32.4355 80.0859 32.5216C80.0289 32.6077 79.9476 32.675 79.8523 32.7148C79.757 32.7547 79.652 32.7654 79.5506 32.7456C79.4493 32.7257 79.3561 32.6762 79.2829 32.6034C79.2096 32.5305 79.1597 32.4375 79.1394 32.3362C79.119 32.235 79.1292 32.1299 79.1686 32.0345C79.208 31.939 79.2749 31.8573 79.3608 31.7999C79.4466 31.7425 79.5476 31.7118 79.6509 31.7118C79.7888 31.7118 79.9212 31.7664 80.0189 31.8637C80.1167 31.961 80.172 32.0931 80.1726 32.231Z" fill="#455A64"/>
<path d="M80.869 31.8716C80.8649 32.079 80.8252 32.2842 80.7517 32.4782C80.6816 32.6988 80.563 32.901 80.4047 33.0699C80.3036 33.1746 80.1801 33.255 80.0435 33.3052C79.9069 33.3553 79.7606 33.3739 79.6158 33.3595C79.3267 33.3282 79.0597 33.1902 78.8669 32.9725C78.7168 32.7948 78.6168 32.5802 78.5773 32.3509C78.5483 32.2004 78.5433 32.0462 78.5623 31.8941C78.5654 31.8374 78.5807 31.782 78.6073 31.7318C78.6107 31.9337 78.6307 32.1349 78.6672 32.3334C78.7158 32.541 78.8153 32.7332 78.9568 32.8926C79.1327 33.0822 79.3712 33.2019 79.6283 33.2297C79.7553 33.2429 79.8837 33.2274 80.0038 33.1841C80.124 33.1409 80.2329 33.0711 80.3223 32.98C80.4733 32.828 80.5906 32.646 80.6668 32.4458C80.7966 32.0988 80.8465 31.8641 80.869 31.8716Z" fill="#455A64"/>
<path d="M69.4656 36.8169C69.4481 36.8169 69.4406 36.717 69.4456 36.5672C69.4456 36.4898 69.4456 36.395 69.4581 36.2926C69.4581 36.2377 69.4581 36.1828 69.4706 36.1303V36.0455V36.0005V35.9581L69.543 35.8932C69.8362 35.9032 70.1264 35.9561 70.4042 36.0505C70.1122 36.0831 69.8171 36.073 69.528 36.0205C69.513 36.0355 69.6653 35.8982 69.6004 35.9581V35.9955V36.0405V36.1279C69.6004 36.1828 69.5879 36.2352 69.5804 36.2926C69.5804 36.3975 69.553 36.4898 69.5405 36.5697C69.508 36.712 69.4831 36.8169 69.4656 36.8169Z" fill="#455A64"/>
<path d="M69.1011 40.247C69.0682 39.9584 69.0774 39.6666 69.1285 39.3807C69.1377 39.0901 69.1898 38.8024 69.2833 38.527C69.3193 38.8153 69.3109 39.1074 69.2583 39.3932C69.2469 39.6839 69.194 39.9714 69.1011 40.247Z" fill="#455A64"/>
<path d="M69.6077 43.2251C69.3224 43.1548 69.049 43.043 68.7963 42.8931C68.7963 42.9081 68.7289 42.7708 68.7589 42.8282V42.7907V42.7458V42.6584L68.7814 42.4962C68.7963 42.3938 68.8113 42.299 68.8238 42.2216C68.8538 42.0668 68.8787 41.9719 68.8962 41.9719C68.9137 41.9719 68.9212 42.0743 68.9162 42.2216C68.9162 42.3014 68.9112 42.3938 68.9012 42.4987C68.9012 42.5561 68.9012 42.6085 68.8862 42.6634V42.7483V42.7932V42.8332C68.9187 42.8906 68.8438 42.7533 68.8513 42.7683C69.1244 42.8827 69.3793 43.0366 69.6077 43.2251Z" fill="#455A64"/>
<path d="M71.9144 44.3711C71.4945 44.2623 71.1006 44.0705 70.7561 43.8069C70.9708 43.8422 71.1763 43.9203 71.3602 44.0366C71.5653 44.1103 71.7537 44.224 71.9144 44.3711Z" fill="#455A64"/>
<path d="M74.6605 45.0026C74.4189 45.1703 74.1539 45.3015 73.8741 45.392H73.8117H73.7917L73.7518 45.372L73.6744 45.3321L73.5296 45.2572L73.2799 45.1199C73.1451 45.04 73.0653 44.9826 73.0727 44.9651C73.0802 44.9477 73.1751 44.9651 73.3224 45.0375C73.3948 45.0675 73.4822 45.1049 73.572 45.1499L73.7193 45.2198L73.7992 45.2572L73.8391 45.2747H73.8591H73.8167C74.0829 45.1426 74.3673 45.0509 74.6605 45.0026Z" fill="#455A64"/>
<path d="M76.5253 44.2462C76.5378 44.2812 76.3406 44.391 76.0835 44.4959C75.8263 44.6007 75.6067 44.6581 75.5842 44.6257C75.5617 44.5932 75.7689 44.4809 76.026 44.3761C76.2832 44.2712 76.5104 44.2138 76.5253 44.2462Z" fill="#455A64"/>
<path d="M78.3577 42.671C78.3906 42.9628 78.3822 43.2578 78.3327 43.5473L78.2903 43.6022H78.2703L78.2279 43.6197L78.148 43.6521L77.9957 43.7095C77.8958 43.7445 77.8085 43.7769 77.7311 43.7994C77.5813 43.8493 77.4814 43.8718 77.4814 43.8543C77.4814 43.8368 77.5613 43.7869 77.7011 43.7145L77.9508 43.5972L78.103 43.5323L78.1829 43.4998L78.2229 43.4823H78.2453L78.2054 43.5373C78.2124 43.2425 78.2638 42.9505 78.3577 42.671Z" fill="#455A64"/>
<path d="M78.6896 39.4357C78.7227 39.9804 78.6662 40.5269 78.5224 41.0533C78.4876 40.7826 78.4943 40.5082 78.5424 40.2395C78.5492 39.9655 78.5989 39.6943 78.6896 39.4357Z" fill="#455A64"/>
<path d="M78.0781 36.8569C78.3701 36.8242 78.6653 36.8343 78.9544 36.8868L79.0118 36.9567V36.9967V37.0416V37.1265C79.0118 37.1814 78.9993 37.2338 78.9918 37.2888C78.9768 37.3936 78.9644 37.486 78.9494 37.5659C78.9219 37.7206 78.8945 37.8155 78.877 37.8155C78.8595 37.8155 78.8545 37.7131 78.857 37.5659C78.857 37.486 78.857 37.3911 78.872 37.2863L78.8845 37.124V37.0366V36.9542L78.9419 37.0241C78.6473 37.0112 78.3562 36.9548 78.0781 36.8569Z" fill="#455A64"/>
<path d="M75.0149 36.5274C75.5315 36.4953 76.0497 36.551 76.5477 36.6921C76.2905 36.7285 76.0291 36.7226 75.7738 36.6747C75.5146 36.6662 75.2584 36.6165 75.0149 36.5274Z" fill="#455A64"/>
<path d="M71.9519 36.1954C72.2091 36.159 72.4705 36.1649 72.7258 36.2128C72.9816 36.2224 73.2343 36.2721 73.4747 36.3601C72.9581 36.3922 72.4398 36.3365 71.9419 36.1954H71.9519Z" fill="#455A64"/>
<path d="M55.9027 31.9664C55.8852 32.266 55.8777 32.568 55.8777 32.8726C55.8768 34.0583 55.9965 35.241 56.2347 36.4025V36.4374C56.2646 36.5822 56.2996 36.7245 56.3345 36.8668C56.4693 37.431 56.6316 37.9877 56.8113 38.5369C56.8338 38.6043 56.8563 38.6742 56.8812 38.7416C57.5253 38.5968 59.3926 36.9792 61.542 34.9596L57.0884 30.9653C56.4718 31.5745 56.1049 31.8965 55.9027 31.9664Z" fill="#FFBE9D"/>
<path d="M84.017 6.03882C84.1718 7.76383 86.1365 9.21673 87.869 9.16431C88.8226 9.13435 89.7887 8.70996 90.7049 8.97458C92.2427 9.42144 92.8643 11.5658 94.4495 11.8529C95.6278 12.0676 96.7137 11.104 97.9095 11.0491C98.7882 11.0017 99.617 11.441 100.346 11.9353C101.075 12.4296 101.769 13.0013 102.593 13.2834C103.417 13.5655 104.19 13.0662 105.032 12.809C105.239 13.3433 105.376 14.0023 105.643 14.5565C105.91 15.1107 106.235 16.1367 105.761 16.3564C105.761 16.3564 104.435 17.0429 103.669 17.0055C103.978 17.3176 104.365 17.5425 104.789 17.6573C105.213 17.7722 105.66 17.7729 106.085 17.6595C106.297 18.9427 106.457 20.4231 105.586 21.3892C105.179 21.808 104.658 22.0987 104.088 22.2255C101.307 22.9444 98.3988 20.9997 95.5754 21.529C94.417 21.7486 93.356 22.3727 92.1852 22.5275C91.6078 22.5991 91.022 22.5545 90.462 22.3963C89.9021 22.2381 89.3795 21.9695 88.9249 21.6064C87.8116 20.7052 87.0452 19.1973 85.6322 18.9602C85.0056 18.8578 84.3715 19.0376 83.7574 19.2098C83.1433 19.3821 82.5092 19.5468 81.8826 19.4145C81.256 19.2822 80.6768 18.753 80.7043 18.1189" fill="#263238"/>
<path d="M78.4951 22.7921C78.8071 21.0447 79.1666 19.2298 79.1666 19.2298C79.1666 19.2298 81.4733 19.2522 82.4544 16.4088C83.388 13.6978 84.062 7.17217 84.062 7.17217C82.5825 6.25112 80.8563 5.80524 79.1158 5.8945C77.3752 5.98376 75.7037 6.60388 74.3261 7.67145L72.0269 21.8385C71.7598 23.4836 72.9606 25.0214 74.723 25.2935C76.498 25.5831 78.188 24.4497 78.4951 22.7921Z" fill="#FFBE9D"/>
<path d="M82.3369 12.0601C82.3209 12.1579 82.2673 12.2455 82.1876 12.3043C82.1078 12.3631 82.0082 12.3883 81.9101 12.3747C81.8614 12.3703 81.8141 12.3563 81.771 12.3333C81.7279 12.3103 81.6899 12.279 81.6591 12.241C81.6284 12.203 81.6056 12.1593 81.5921 12.1124C81.5786 12.0654 81.5747 12.0162 81.5805 11.9677C81.5971 11.8698 81.6512 11.7821 81.7314 11.7234C81.8116 11.6646 81.9115 11.6395 82.0099 11.6532C82.0583 11.6578 82.1054 11.6721 82.1482 11.6952C82.191 11.7183 82.2288 11.7498 82.2592 11.7877C82.2897 11.8256 82.3123 11.8693 82.3256 11.916C82.339 11.9628 82.3428 12.0118 82.3369 12.0601Z" fill="#263238"/>
<path d="M83.0184 11.7481C82.9635 11.788 82.7164 11.5284 82.312 11.4585C81.9076 11.3886 81.578 11.5359 81.5431 11.481C81.5081 11.4261 81.588 11.3736 81.7328 11.3037C81.9291 11.2125 82.149 11.1846 82.3619 11.2239C82.5708 11.2619 82.7628 11.364 82.9111 11.5159C83.0184 11.6333 83.0459 11.7281 83.0184 11.7481Z" fill="#263238"/>
<path d="M78.1929 11.4036C78.1763 11.5016 78.1222 11.5893 78.042 11.648C77.9619 11.7067 77.862 11.7319 77.7635 11.7182C77.7151 11.7135 77.6681 11.6992 77.6253 11.6761C77.5825 11.653 77.5447 11.6216 77.5142 11.5837C77.4837 11.5458 77.4612 11.5021 77.4478 11.4553C77.4345 11.4085 77.4306 11.3596 77.4365 11.3113C77.4531 11.2133 77.5072 11.1256 77.5874 11.0669C77.6676 11.0081 77.7675 10.983 77.8659 10.9967C77.9143 11.0013 77.9613 11.0156 78.0042 11.0387C78.047 11.0618 78.0847 11.0933 78.1152 11.1312C78.1457 11.1691 78.1683 11.2128 78.1816 11.2596C78.195 11.3063 78.1988 11.3553 78.1929 11.4036Z" fill="#263238"/>
<path d="M78.782 11.1515C78.7271 11.1914 78.48 10.9318 78.0756 10.8619C77.6711 10.792 77.3416 10.9418 77.3042 10.8844C77.2667 10.827 77.3491 10.7795 77.4964 10.7071C77.6925 10.618 77.9111 10.591 78.123 10.6297C78.3334 10.6656 78.5267 10.768 78.6747 10.9218C78.782 11.0392 78.8095 11.134 78.782 11.1515Z" fill="#263238"/>
<path d="M79.7183 14.4043C79.9429 14.3756 80.1702 14.3756 80.3948 14.4043C80.4996 14.4043 80.602 14.4043 80.6319 14.3419C80.6587 14.2371 80.6535 14.1266 80.617 14.0248C80.5645 13.7577 80.5096 13.4781 80.4497 13.186C80.2225 11.9953 80.0802 11.0217 80.1277 11.0117C80.1751 11.0017 80.3973 11.9628 80.627 13.1561C80.6794 13.4482 80.7318 13.7278 80.7792 13.9949C80.8232 14.1306 80.817 14.2777 80.7618 14.4093C80.7405 14.4429 80.7119 14.4713 80.6782 14.4925C80.6445 14.5136 80.6066 14.527 80.567 14.5316C80.5073 14.5383 80.447 14.5383 80.3873 14.5316C80.1599 14.5169 79.9352 14.4742 79.7183 14.4043Z" fill="#263238"/>
<path d="M79.1564 19.2298C77.7744 19.0046 76.4823 18.3995 75.4243 17.4823C75.4243 17.4823 76.021 19.6592 78.9967 19.8988L79.1564 19.2298Z" fill="#EB996E"/>
<path d="M79.3762 15.3479C79.3156 15.2385 79.2286 15.146 79.123 15.0788C79.0175 15.0116 78.8968 14.972 78.772 14.9635C78.6821 14.9565 78.5916 14.9675 78.5059 14.9958C78.4202 15.024 78.3409 15.0691 78.2728 15.1282C78.2069 15.1863 78.1606 15.2632 78.14 15.3485C78.1195 15.4338 78.1257 15.5234 78.1579 15.605C78.2099 15.6875 78.2849 15.753 78.3736 15.7933C78.4623 15.8337 78.5609 15.8472 78.6572 15.8322C78.8591 15.7969 79.0523 15.7232 79.2264 15.615C79.2779 15.5905 79.3245 15.5566 79.3637 15.5152C79.3824 15.4956 79.3948 15.4708 79.3993 15.4441C79.4037 15.4174 79.4 15.39 79.3887 15.3654" fill="#EB996E"/>
<path d="M78.4951 14.4742C78.5625 14.4742 78.4951 14.9185 78.8046 15.2955C79.1142 15.6724 79.601 15.7074 79.5935 15.7698C79.586 15.8322 79.4737 15.8347 79.2764 15.8073C79.0194 15.7656 78.7852 15.6348 78.6149 15.4378C78.4504 15.2483 78.367 15.0017 78.3827 14.7513C78.3852 14.5665 78.4526 14.4642 78.4951 14.4742Z" fill="#263238"/>
<path d="M76.3057 5.57949C77.087 7.3045 79.6184 9.40148 81.5756 10.1454C81.3958 9.79091 80.2974 8.78986 80.1202 8.43537C80.909 9.29163 82.0499 10.455 83.2556 10.747C83.3945 10.793 83.5437 10.7974 83.685 10.7595C83.763 10.7197 83.8307 10.6626 83.8831 10.5925C83.9355 10.5223 83.971 10.4411 83.9871 10.3551C84.2209 9.48562 84.3599 8.59336 84.4015 7.69394C84.4426 6.93542 84.1926 6.18982 83.7025 5.60945C83.0359 4.86053 81.955 4.50105 80.9015 4.27637C80.0346 4.05263 79.132 4.00174 78.2454 4.12659C77.3791 4.29135 76.5703 4.79063 76.3107 5.52707" fill="#263238"/>
<path d="M71.6399 12.0727C71.6255 11.4061 71.6505 10.7392 71.7148 10.0755C71.9121 8.55274 72.3889 3.01822 77.4965 4.44117L76.9523 5.86162C76.9523 5.86162 77.3442 9.42398 74.723 11.3362C74.723 11.3362 74.7355 14.8936 72.9181 16.1767C72.9181 16.1767 71.6524 13.7652 71.6399 12.0826" fill="#263238"/>
<path d="M74.8328 11.0865C74.5308 10.9641 74.2009 10.927 73.8792 10.9792C73.5579 11.0349 73.2712 11.2141 73.0804 11.4784C72.9071 11.7567 72.8456 12.0903 72.9081 12.4121C72.9726 12.7314 73.1074 13.0325 73.3026 13.2933C73.429 13.4894 73.6001 13.6528 73.8018 13.7701C73.9047 13.8254 74.0196 13.8543 74.1363 13.8543C74.2531 13.8543 74.368 13.8254 74.4709 13.7701" fill="#FFBE9D"/>
<path d="M74.326 12.9514C74.3584 12.9688 74.1887 13.1336 73.9166 13.0063C73.8451 12.9673 73.7821 12.9146 73.7311 12.8512C73.6801 12.7878 73.6422 12.7149 73.6195 12.6368C73.5617 12.4607 73.5396 12.2748 73.5546 12.0901C73.565 11.8925 73.6466 11.7054 73.7843 11.5634C73.8416 11.5024 73.9121 11.4553 73.9904 11.4259C74.0688 11.3965 74.1528 11.3854 74.2361 11.3936C74.5332 11.4385 74.5881 11.6582 74.5531 11.6582C74.5182 11.6582 74.4308 11.5509 74.2286 11.5634C74.1034 11.5882 73.9911 11.6569 73.9119 11.7571C73.8328 11.8573 73.7919 11.9825 73.7967 12.1101C73.7743 12.4396 73.8467 12.7566 74.0039 12.859C74.1612 12.9613 74.311 12.9214 74.326 12.9514Z" fill="#EB996E"/>
<path d="M104.407 11.3262C104.373 11.4016 104.327 11.4708 104.27 11.5309C104.107 11.7044 103.896 11.8259 103.664 11.8804C103.295 11.9727 102.907 11.9456 102.555 11.8031C102.103 11.6039 101.683 11.3398 101.307 11.0192C100.878 10.6947 100.398 10.3102 99.7841 10.1779C99.4666 10.1179 99.1395 10.1315 98.828 10.2178C98.4956 10.3146 98.1737 10.4443 97.8669 10.6048C97.5474 10.7671 97.2228 10.9468 96.8684 11.1041C96.5155 11.277 96.1321 11.3787 95.74 11.4036C95.3263 11.4173 94.919 11.2993 94.5767 11.0666C94.2383 10.8207 93.9431 10.5204 93.7029 10.1779C93.2036 9.51386 92.7992 8.7924 92.1901 8.32058C91.8945 8.08832 91.5418 7.93999 91.1691 7.8912C90.8085 7.85056 90.4438 7.86656 90.0881 7.93863C89.3892 8.06845 88.7351 8.29062 88.091 8.37301C87.4934 8.44516 86.8873 8.39246 86.3111 8.21823C85.4752 7.96939 84.7277 7.48697 84.1567 6.82774C83.947 6.58989 83.7722 6.32344 83.6375 6.03638C83.6524 6.05098 83.6651 6.06783 83.6749 6.08631C83.6999 6.12874 83.7323 6.17867 83.7723 6.24108C84.3669 7.16294 85.2792 7.83449 86.3361 8.12836C86.9028 8.29466 87.4978 8.34141 88.0835 8.26566C88.7126 8.18078 89.3617 7.95611 90.0807 7.8213C90.4482 7.74345 90.8259 7.72574 91.199 7.76888C91.593 7.81934 91.9663 7.97451 92.28 8.21823C92.9191 8.71751 93.326 9.44646 93.8203 10.1005C94.0509 10.4316 94.3352 10.7219 94.6615 10.9593C94.9807 11.1775 95.361 11.2885 95.7475 11.2763C96.124 11.253 96.4922 11.1554 96.8309 10.9892C97.1729 10.8394 97.495 10.6622 97.817 10.49C98.1315 10.3254 98.4619 10.1933 98.8031 10.0955C99.1288 10.0076 99.4702 9.99483 99.8016 10.0581C100.38 10.2306 100.912 10.5299 101.359 10.9343C101.726 11.2538 102.136 11.5194 102.578 11.7232C102.915 11.8649 103.288 11.8989 103.646 11.8205C103.872 11.7701 104.08 11.6597 104.248 11.501C104.363 11.3986 104.402 11.3237 104.407 11.3262Z" fill="#263238"/>
<path d="M46.9106 60.9171L42.3821 70.0514L43.7327 70.1014L39.8957 77.3609H41.9128L38.7673 83.8091H56.3395L52.4701 77.3609L54.3249 77.2785L50.6177 70.024L51.9883 69.9441L46.9106 60.9171Z" fill="#455A64"/>
<path d="M47.6744 71.5168C47.7119 71.5168 47.6744 75.3863 47.6145 80.1569C47.5546 84.9275 47.4573 88.7944 47.4223 88.7944C47.3874 88.7944 47.4223 84.925 47.4847 80.1544C47.5471 75.3838 47.6395 71.5168 47.6744 71.5168Z" fill="#263238"/>
<path d="M49.8288 73.861C49.7595 74.0075 49.6677 74.1423 49.5566 74.2604C49.31 74.5604 49.0467 74.8463 48.7678 75.1166C48.4482 75.4387 48.1587 75.7258 47.9565 75.943C47.8549 76.0679 47.7412 76.1825 47.6169 76.285C47.6853 76.1378 47.7763 76.0021 47.8866 75.883C48.1346 75.5842 48.3979 75.2984 48.6754 75.0268C48.9974 74.7047 49.287 74.4177 49.4892 74.2005C49.5894 74.075 49.7033 73.9612 49.8288 73.861Z" fill="#263238"/>
<path d="M47.6321 76.3773C47.2762 76.1781 46.9416 75.9431 46.6335 75.6758C46.2968 75.44 45.9856 75.1698 45.7048 74.8695C46.0609 75.0685 46.3955 75.3036 46.7034 75.571C47.0405 75.8063 47.3518 76.0765 47.6321 76.3773Z" fill="#263238"/>
<path d="M47.5123 80.8583C47.1204 80.5811 46.7445 80.2819 46.3864 79.9621C46.0004 79.6757 45.6311 79.3673 45.2805 79.0385C45.7083 79.2633 46.1073 79.5391 46.4688 79.8598C46.8566 80.1482 47.2071 80.4836 47.5123 80.8583Z" fill="#263238"/>
<path d="M50.0161 78.0874C50.0485 78.1124 49.5343 78.7814 48.8103 79.5178L47.8991 80.4715C47.7839 80.6135 47.6542 80.7432 47.5122 80.8584C47.4797 80.8334 47.994 80.1644 48.718 79.428L49.6291 78.4768C49.7448 78.3344 49.8744 78.204 50.0161 78.0874Z" fill="#263238"/>
</svg>
