<svg width="25" height="25" viewBox="0 0 25 25" fill="none" xmlns="http://www.w3.org/2000/svg">
<path d="M23.3459 6.57278C23.2997 6.38078 23.2158 6.19988 23.0991 6.04055C22.9824 5.88123 22.8353 5.74666 22.6662 5.64465C19.717 3.86059 16.3358 2.91748 12.889 2.91748C9.44215 2.91748 6.06101 3.86059 3.1118 5.64465C2.9432 5.74691 2.79641 5.8814 2.67984 6.04045C2.56326 6.19949 2.47919 6.37995 2.43243 6.57152C2.38567 6.76308 2.37714 6.96199 2.40733 7.15685C2.43752 7.35172 2.50583 7.53872 2.60836 7.70715L11.6084 22.4512C11.7421 22.6716 11.9303 22.8539 12.155 22.9804C12.3796 23.1068 12.6331 23.1733 12.8909 23.1733C13.1487 23.1733 13.4021 23.1068 13.6268 22.9804C13.8514 22.8539 14.0397 22.6716 14.1734 22.4512L23.1734 7.70715C23.276 7.539 23.3441 7.35209 23.3738 7.15732C23.4034 6.96256 23.3939 6.76384 23.3459 6.57278ZM6.85055 11.7759C7.09424 11.5462 7.38613 11.3739 7.70491 11.2714C8.02369 11.1689 8.36133 11.1388 8.6932 11.1834C9.02508 11.2279 9.34282 11.346 9.62326 11.529C9.90369 11.712 10.1397 11.9553 10.3142 12.2411C10.4887 12.5269 10.5971 12.8481 10.6317 13.1812C10.6662 13.5142 10.626 13.8508 10.5139 14.1664C10.4019 14.4819 10.2208 14.7685 9.9839 15.0051C9.747 15.2418 9.46027 15.4226 9.14461 15.5343L6.85055 11.7759ZM15.0931 18.0525C14.7175 17.6983 14.4751 17.2258 14.4066 16.7141C14.338 16.2025 14.4475 15.6828 14.7167 15.2423C14.9859 14.8018 15.3983 14.4673 15.8849 14.2948C16.3714 14.1223 16.9025 14.1224 17.389 14.295L15.0931 18.0525ZM18.1802 12.9965C17.3466 12.6182 16.4034 12.5578 15.5283 12.8268C14.6533 13.0958 13.9069 13.6757 13.4298 14.457C12.9527 15.2383 12.7779 16.1672 12.9384 17.0685C13.0988 17.9698 13.5834 18.7813 14.3009 19.35L12.889 21.6665L9.93586 16.8318C10.4207 16.6134 10.8535 16.2943 11.2056 15.8957C11.5577 15.4972 11.821 15.0283 11.978 14.5203C12.135 14.0122 12.1822 13.4765 12.1164 12.9488C12.0506 12.4211 11.8733 11.9135 11.5963 11.4595C11.3193 11.0056 10.9489 10.6158 10.5097 10.3159C10.0705 10.0161 9.57255 9.81304 9.0489 9.72035C8.52526 9.62765 7.98789 9.64738 7.47246 9.77824C6.95702 9.9091 6.47531 10.1481 6.0593 10.4793L5.46399 9.5034C7.69996 8.13853 10.2689 7.41641 12.8885 7.41641C15.5081 7.41641 18.0771 8.13853 20.3131 9.5034L18.1802 12.9965ZM21.0959 8.22184C18.6239 6.71419 15.7844 5.9166 12.889 5.9166C9.99355 5.9166 7.15407 6.71419 4.68211 8.22184L3.88899 6.92622C6.60421 5.28523 9.71641 4.41782 12.889 4.41782C16.0616 4.41782 19.1738 5.28523 21.889 6.92622L21.0959 8.22184Z" fill="#5FA9FF"/>
</svg>
